<?xml version="1.0" encoding="UTF-8" standalone="no" ?>
<!DOCTYPE svg PUBLIC "-//W3C//DTD SVG 1.1//EN" "http://www.w3.org/Graphics/SVG/1.1/DTD/svg11.dtd">
<svg xmlns="http://www.w3.org/2000/svg" xmlns:xlink="http://www.w3.org/1999/xlink" version="1.1" width="1080" height="1080" viewBox="0 0 1080 1080" xml:space="preserve">
<desc>Created with Fabric.js 5.2.4</desc>
<defs>
</defs>
<rect x="0" y="0" width="100%" height="100%" fill="transparent"></rect>
<g transform="matrix(1 0 0 1 540 540)" id="c79cee74-f03b-48f3-9c37-0d5c601d19ca"  >
</g>
<g transform="matrix(1 0 0 1 540 540)" id="18d1b458-d8ad-471e-b6f9-8e09d238c482"  >
<rect style="stroke: none; stroke-width: 1; stroke-dasharray: none; stroke-linecap: butt; stroke-dashoffset: 0; stroke-linejoin: miter; stroke-miterlimit: 4; fill: rgb(255,255,255); fill-rule: nonzero; opacity: 1; visibility: hidden;" vector-effect="non-scaling-stroke"  x="-540" y="-540" rx="0" ry="0" width="1080" height="1080" />
</g>
<g transform="matrix(3.18 0 0 3.18 411.63 498.33)"  >
<polyline style="stroke: rgb(71,186,135); stroke-width: 3; stroke-dasharray: none; stroke-linecap: butt; stroke-dashoffset: 0; stroke-linejoin: miter; stroke-miterlimit: 4; fill: rgb(65,184,131); fill-opacity: 0; fill-rule: nonzero; opacity: 1;" vector-effect="non-scaling-stroke"  points="48.34,-59.75 48.34,-69.75 -48.34,-79.75 -48.34,79.75 48.34,69.75 48.34,59.75 " />
</g>
<g transform="matrix(3.18 0 0 3.18 565.36 498.33)"  >
<rect style="stroke: none; stroke-width: 2; stroke-dasharray: none; stroke-linecap: butt; stroke-dashoffset: 0; stroke-linejoin: miter; stroke-miterlimit: 4; fill: rgb(255,255,255); fill-opacity: 0; fill-rule: nonzero; opacity: 1;" vector-effect="non-scaling-stroke"  x="-96.69" y="-59.755" rx="0" ry="0" width="193.38" height="119.51" />
</g>
<g transform="matrix(3.18 0 0 3.18 565.36 366.3)"  >
<path style="stroke: none; stroke-width: 1; stroke-dasharray: none; stroke-linecap: butt; stroke-dashoffset: 0; stroke-linejoin: miter; stroke-miterlimit: 4; fill: rgb(71,186,135); fill-rule: nonzero; opacity: 1;" vector-effect="non-scaling-stroke"  transform=" translate(-90.96, 14.94)" d="M 4.27 0 L 4.27 -29.91 L 8.38 -29.91 L 8.38 0 L 4.27 0 Z M 38.21 -6.71 L 38.21 -29.91 L 42.26 -29.91 L 42.26 0 L 38.12 0 L 21.03 -23.16 L 21.03 0 L 16.92 0 L 16.92 -29.91 L 21.07 -29.91 L 38.21 -6.71 Z M 58.85 0 L 46.79 -29.91 L 51.2 -29.91 L 61.07 -4.57 L 70.94 -29.91 L 75.26 -29.91 L 63.12 0 L 58.85 0 Z M 92.22 -30.17 Q 96.54 -30.17 100.15 -28.16 Q 103.76 -26.15 105.85 -22.67 Q 107.95 -19.19 107.95 -15 L 107.95 -15 Q 107.95 -10.81 105.85 -7.29 Q 103.76 -3.76 100.15 -1.73 Q 96.54 0.3 92.22 0.3 L 92.22 0.3 Q 87.91 0.3 84.29 -1.73 Q 80.68 -3.76 78.59 -7.29 Q 76.5 -10.81 76.5 -15 L 76.5 -15 Q 76.5 -19.19 78.59 -22.67 Q 80.68 -26.15 84.27 -28.16 Q 87.86 -30.17 92.22 -30.17 L 92.22 -30.17 Z M 92.26 -26.5 Q 89.15 -26.5 86.47 -24.96 Q 83.8 -23.42 82.22 -20.79 Q 80.64 -18.16 80.64 -15 L 80.64 -15 Q 80.64 -11.84 82.22 -9.19 Q 83.8 -6.54 86.47 -4.98 Q 89.15 -3.42 92.26 -3.42 L 92.26 -3.42 Q 95.38 -3.42 98.01 -4.98 Q 100.64 -6.54 102.2 -9.19 Q 103.76 -11.84 103.76 -15 L 103.76 -15 Q 103.76 -18.16 102.2 -20.79 Q 100.64 -23.42 98.01 -24.96 Q 95.38 -26.5 92.26 -26.5 L 92.26 -26.5 Z M 113.85 0 L 113.85 -29.91 L 117.95 -29.91 L 117.95 0 L 113.85 0 Z M 148.16 -22.74 Q 146.45 -24.53 144.19 -25.53 Q 141.92 -26.54 139.53 -26.54 L 139.53 -26.54 Q 136.37 -26.54 133.72 -25 Q 131.07 -23.46 129.53 -20.83 Q 127.99 -18.21 127.99 -15.04 L 127.99 -15.04 Q 127.99 -11.92 129.53 -9.27 Q 131.07 -6.62 133.72 -5.09 Q 136.37 -3.55 139.53 -3.55 L 139.53 -3.55 Q 141.88 -3.55 144.15 -4.51 Q 146.41 -5.47 148.16 -7.14 L 148.16 -7.14 L 150.64 -4.44 Q 148.38 -2.22 145.38 -0.96 Q 142.39 0.3 139.32 0.3 L 139.32 0.3 Q 135.04 0.3 131.5 -1.73 Q 127.95 -3.76 125.9 -7.26 Q 123.85 -10.77 123.85 -15 L 123.85 -15 Q 123.85 -19.19 125.92 -22.67 Q 127.99 -26.15 131.58 -28.16 Q 135.17 -30.17 139.49 -30.17 L 139.49 -30.17 Q 142.61 -30.17 145.53 -29 Q 148.46 -27.82 150.6 -25.68 L 150.6 -25.68 L 148.16 -22.74 Z M 156.37 0 L 156.37 -29.91 L 177.14 -29.91 L 177.14 -26.2 L 160.47 -26.2 L 160.47 -16.97 L 175.38 -16.97 L 175.38 -13.25 L 160.47 -13.25 L 160.47 -3.72 L 177.65 -3.72 L 177.65 0 L 156.37 0 Z" stroke-linecap="round" />
</g>
<g transform="matrix(3.18 0 0 3.18 565.38 529.28)"  >
<path style="stroke: none; stroke-width: 1; stroke-dasharray: none; stroke-linecap: butt; stroke-dashoffset: 0; stroke-linejoin: miter; stroke-miterlimit: 4; fill: rgb(71,186,135); fill-rule: nonzero; opacity: 1;" vector-effect="non-scaling-stroke"  transform=" translate(-88.09, 32.55)" d="M 28.4 -37.53 Q 38.18 -36.97 43.95 -32.41 Q 49.73 -27.84 49.73 -20.11 L 49.73 -20.11 Q 49.73 -14.06 46.61 -9.41 Q 43.49 -4.75 37.76 -2.14 Q 32.03 0.47 24.4 0.47 L 24.4 0.47 Q 18.25 0.47 12.06 -1.4 Q 5.87 -3.26 1.4 -6.33 L 1.4 -6.33 L 5.21 -13.6 Q 9.13 -10.52 13.97 -8.85 Q 18.81 -7.17 23.84 -7.17 L 23.84 -7.17 Q 31.85 -7.17 36.41 -10.62 Q 40.97 -14.06 40.97 -19.83 L 40.97 -19.83 Q 40.97 -25.61 36.41 -28.63 Q 31.85 -31.66 23.56 -31.66 L 23.56 -31.66 L 14.62 -31.66 L 14.62 -37.34 L 34.64 -57.08 L 4.56 -57.08 L 4.47 -65.18 L 46.37 -65.18 L 46.37 -59.5 L 24.49 -37.81 L 28.4 -37.53 Z M 103.18 -54.01 Q 100.1 -55.96 96.15 -57.04 Q 92.19 -58.11 88.37 -58.11 L 88.37 -58.11 Q 78.97 -58.11 73.94 -51.59 Q 68.91 -45.07 68.91 -33.71 L 68.91 -33.71 Q 68.91 -31.94 69 -31.01 L 69 -31.01 Q 71.42 -36.32 76.26 -39.11 Q 81.11 -41.9 87.9 -41.9 L 87.9 -41.9 Q 97.68 -41.9 103.32 -36.32 Q 108.95 -30.73 108.95 -21.23 L 108.95 -21.23 Q 108.95 -14.62 106.16 -9.73 Q 103.36 -4.84 98.24 -2.19 Q 93.12 0.47 86.32 0.47 L 86.32 0.47 Q 78.22 0.47 72.31 -3.26 Q 66.39 -6.98 63.27 -14.11 Q 60.16 -21.23 60.16 -31.2 L 60.16 -31.2 Q 60.16 -41.53 63.55 -49.31 Q 66.95 -57.08 73.15 -61.32 Q 79.34 -65.56 87.72 -65.56 L 87.72 -65.56 Q 92.37 -65.56 97.54 -64.25 Q 102.71 -62.95 106.71 -60.81 L 106.71 -60.81 L 103.18 -54.01 Z M 86.32 -34.73 Q 81.57 -34.73 78.03 -32.82 Q 74.5 -30.92 72.59 -27.75 Q 70.68 -24.58 70.77 -20.86 L 70.77 -20.86 Q 70.68 -17.6 72.35 -14.53 Q 74.03 -11.45 77.43 -9.41 Q 80.83 -7.36 85.76 -7.36 L 85.76 -7.36 Q 92.47 -7.36 96.52 -11.08 Q 100.57 -14.81 100.57 -21.32 L 100.57 -21.32 Q 100.57 -27.47 96.7 -31.1 Q 92.84 -34.73 86.32 -34.73 L 86.32 -34.73 Z M 147.5 -65.56 Q 160.63 -65.56 167.71 -57.04 Q 174.79 -48.52 174.79 -32.59 L 174.79 -32.59 Q 174.79 -16.67 167.71 -8.1 Q 160.63 0.47 147.5 0.47 L 147.5 0.47 Q 134.28 0.47 127.25 -8.1 Q 120.22 -16.67 120.22 -32.59 L 120.22 -32.59 Q 120.22 -48.52 127.25 -57.04 Q 134.28 -65.56 147.5 -65.56 L 147.5 -65.56 Z M 147.5 -58.48 Q 129.44 -58.48 129.44 -32.59 L 129.44 -32.59 Q 129.44 -19.74 134 -13.22 Q 138.56 -6.7 147.5 -6.7 L 147.5 -6.7 Q 156.44 -6.7 161 -13.22 Q 165.57 -19.74 165.57 -32.59 L 165.57 -32.59 Q 165.57 -58.48 147.5 -58.48 L 147.5 -58.48 Z" stroke-linecap="round" />
</g>
<g transform="matrix(3.18 0 0 3.18 565.38 666.05)"  >
<path style="stroke: none; stroke-width: 1; stroke-dasharray: none; stroke-linecap: butt; stroke-dashoffset: 0; stroke-linejoin: miter; stroke-miterlimit: 4; fill: rgb(71,186,135); fill-rule: nonzero; opacity: 1;" vector-effect="non-scaling-stroke"  transform=" translate(-10.64, 3.87)" d="M 0.78 -0.6 L 0.78 -0.6 Q 0.78 -0.95 0.99 -1.16 Q 1.2 -1.37 1.5 -1.37 L 1.5 -1.37 Q 1.79 -1.37 2 -1.16 Q 2.21 -0.95 2.21 -0.6 L 2.21 -0.6 Q 2.21 -0.28 2 -0.07 Q 1.79 0.14 1.5 0.14 L 1.5 0.14 Q 1.2 0.14 0.99 -0.07 Q 0.78 -0.28 0.78 -0.6 Z M 3.17 0 L 5.46 -4.07 L 3.32 -7.87 L 4.43 -7.87 L 5.5 -5.86 Q 5.65 -5.58 5.79 -5.32 Q 5.93 -5.06 6.11 -4.72 L 6.11 -4.72 L 6.16 -4.72 Q 6.32 -5.06 6.45 -5.32 Q 6.58 -5.58 6.72 -5.86 L 6.72 -5.86 L 7.76 -7.87 L 8.82 -7.87 L 6.67 -4.02 L 8.96 0 L 7.86 0 L 6.71 -2.12 Q 6.55 -2.41 6.39 -2.72 Q 6.23 -3.02 6.04 -3.38 L 6.04 -3.38 L 5.99 -3.38 Q 5.82 -3.02 5.66 -2.72 Q 5.51 -2.41 5.36 -2.12 L 5.36 -2.12 L 4.22 0 L 3.17 0 Z M 11.5 0 L 11.5 -3.05 L 9.13 -7.87 L 10.2 -7.87 L 11.22 -5.65 Q 11.41 -5.22 11.59 -4.8 Q 11.77 -4.38 11.98 -3.94 L 11.98 -3.94 L 12.02 -3.94 Q 12.23 -4.38 12.43 -4.8 Q 12.64 -5.22 12.82 -5.65 L 12.82 -5.65 L 13.82 -7.87 L 14.87 -7.87 L 12.5 -3.05 L 12.5 0 L 11.5 0 Z M 15.08 0 L 15.08 -0.6 L 19.22 -7.03 L 15.46 -7.03 L 15.46 -7.87 L 20.47 -7.87 L 20.47 -7.28 L 16.32 -0.85 L 20.51 -0.85 L 20.51 0 L 15.08 0 Z" stroke-linecap="round" />
</g>
<g transform="matrix(0 0 0 0 0 0)"  >
<g style=""   >
</g>
</g>
<g transform="matrix(0 0 0 0 0 0)"  >
<g style=""   >
</g>
</g>
<g transform="matrix(0 0 0 0 0 0)"  >
<g style=""   >
</g>
</g>
<g transform="matrix(0 0 0 0 0 0)"  >
<g style=""   >
</g>
</g>
<g transform="matrix(0 0 0 0 0 0)"  >
<g style=""   >
</g>
</g>
<g transform="matrix(0 0 0 0 0 0)"  >
<g style=""   >
</g>
</g>
<g transform="matrix(NaN NaN NaN NaN 0 0)"  >
<g style=""   >
</g>
</g>
</svg>